<?xml version="1.0" encoding="utf-8"?>
<!-- Generator: Adobe Illustrator 22.1.0, SVG Export Plug-In . SVG Version: 6.00 Build 0)  -->
<svg version="1.1" id="Camada_1" xmlns="http://www.w3.org/2000/svg" xmlns:xlink="http://www.w3.org/1999/xlink" x="0px" y="0px"
	 viewBox="0 0 79.8 79.9" style="enable-background:new 0 0 79.8 79.9;" xml:space="preserve">
<style type="text/css">
	.st0{fill:#4D00FF;}
	.st1{fill:#FFFFFF;stroke:#6600FF;stroke-width:1.4173;stroke-miterlimit:10;}
</style>
<path class="st0" d="M40,79.3L40,79.3c-21.8,0-39.5-17.7-39.5-39.5v0C0.5,18,18.2,0.3,40,0.3h0c21.8,0,39.5,17.7,39.5,39.5v0
	C79.5,61.6,61.8,79.3,40,79.3z"/>
<g>
	<path class="st1" d="M40,8.4c1.3,0.4,4.5,3,9.6,7.7c5.1,4.8,10,9.7,14.6,14.8c4.6,5.1,6.8,8.1,6.8,9c0,1-2.3,4.1-6.8,9.3
		c-4.6,5.2-9.4,10.1-14.6,14.9s-8.4,7.2-9.6,7.2c-1,0.1-3.2-1.3-6.8-4.3c-3.6-2.9-7.2-6.2-10.9-9.9c-3.7-3.6-6.9-7.2-9.8-10.7
		C9.8,43,8.6,40.8,9,39.8c0.6-1.3,3.1-4.6,7.6-10c4.4-5.2,9.2-10.2,14.1-15C35.7,10.2,38.8,8,40,8.4z M53.4,39.8
		c0.3-0.8-1.7-3.1-5.7-6.8s-6.6-5.9-7.6-6.4c-0.8-0.4-3.3,1.5-7.3,5.6c-4.1,4.1-6,6.7-6,7.6c0.1,0.8,2.1,3.2,6.2,7.2s6.5,6,7.2,6
		c0.6,0,2.9-2,6.9-5.9C51,43.1,53.1,40.7,53.4,39.8z M40,34.8c0.4,0.3,1.3,1.1,2.8,2.4c1.5,1.4,2.2,2.2,2.1,2.6
		c-0.1,0.3-0.9,1.2-2.4,2.7c-1.5,1.5-2.4,2.2-2.6,2.2c-0.3,0-1.2-0.7-2.8-2.2C35.8,40.9,35,40,35,39.8c0-0.4,0.8-1.3,2.3-2.8
		C38.9,35.4,39.8,34.7,40,34.8z"/>
</g>
</svg>
