<?xml version="1.0" encoding="utf-8"?>
<!-- Generator: Adobe Illustrator 22.1.0, SVG Export Plug-In . SVG Version: 6.00 Build 0)  -->
<svg version="1.1" id="Camada_1" xmlns="http://www.w3.org/2000/svg" xmlns:xlink="http://www.w3.org/1999/xlink" x="0px" y="0px"
	 viewBox="0 0 339.3 79.9" style="enable-background:new 0 0 339.3 79.9;" xml:space="preserve">
<style type="text/css">
	.st0{fill:#FFFFFF;}
</style>
<g>
	<path class="st0" d="M79.2,10.8c-9,19.7-17.2,35.9-24.6,48.5h7.9V75c-3.3,0.2-8.3,0.3-15.1,0.3c-6.7,0-12.7-0.1-17.8-0.2L22,75
		V59.2h7.9c-3.2-5.4-6.9-12-11.1-19.7c-4.1-7.7-7.4-14.1-9.9-19.1l-3.8-7.5l18.2-7.1c10.7,24.7,17,37.7,18.7,39.1
		c0.3,0.2,2-3,5.3-9.5c3.2-6.5,6.4-13.1,9.4-19.7l4.6-9.9L79.2,10.8z"/>
	<path class="st0" d="M121.3,4.9l18.9,1.9c0,2.2-0.4,9.1-1.2,20.6c-0.8,11.5-1.7,22.4-2.5,32.8l-1.2,15.6l-17.1-0.2l0.2-4.4
		c-18,3.7-27.6,5.2-28.7,4.4c-0.6-0.5-1.5-6.4-2.7-17.9c-1.2-11.5-2.2-22.8-3.1-34.1L82.5,6.8l19.1-1.9c1.7,35.8,3.3,53.7,4.8,53.9
		c1.1,0.2,5.3-0.6,12.6-2.4L121.3,4.9z"/>
	<path class="st0" d="M171.4,60.5c-0.3,0.9,9.4,0.9,28.9-0.2l-0.1,15.3c-35.8,0.3-54.1-0.4-54.9-2.1c-0.3-0.7,1.1-3.8,4.2-9.4
		c3.1-5.5,6.3-10.9,9.6-16l4.9-7.6c-12.4-18.7-18.6-29.1-18.6-31.1c0-0.5,1.9-1,5.7-1.5c3.8-0.5,8.4-0.9,13.7-1.2s10.7-0.6,16.1-0.8
		c5.4-0.2,10-0.4,13.7-0.4l5.7-0.1l0.9,16c-19.7-0.1-29.7,0.2-30.1,0.9c-0.1,0.1,0.9,1.6,3.1,4.4c2.2,2.8,4.5,5.7,6.8,8.7
		c2.3,3,3.5,4.7,3.7,5.3c0.2,0.5-0.8,2.4-3,5.7c-2.2,3.2-4.4,6.4-6.7,9.5C172.6,58.8,171.4,60.4,171.4,60.5z"/>
	<path class="st0" d="M228.5,56.2c0.3,0.4,3.4,0.7,9.5,0.8c6,0.1,15,0.2,26.7,0.1L264,74.5l-40,1.2c-8.9,0.1-13.5,0-13.7-0.3
		c-0.4-0.7-0.8-6.9-1.1-18.6c-0.4-11.7-0.6-23.3-0.8-34.6L208,5l19,0.6C227.6,38.8,228.1,55.6,228.5,56.2z"/>
	<path class="st0" d="M300.8,5c1.5,0.5,5.1,3.4,10.8,8.7c5.7,5.4,11.2,10.9,16.4,16.6c5.2,5.7,7.7,9.1,7.7,10.1
		c0,1.1-2.6,4.6-7.7,10.4c-5.2,5.8-10.6,11.4-16.4,16.8c-5.8,5.4-9.4,8.1-10.8,8.1c-1.1,0.1-3.6-1.5-7.6-4.8c-4-3.3-8.1-7-12.3-11.1
		c-4.2-4.1-7.8-8.1-11-12c-3.1-3.9-4.4-6.3-4-7.4c0.7-1.5,3.5-5.2,8.5-11.2c5-5.9,10.3-11.5,15.8-16.9C295.9,7.1,299.4,4.6,300.8,5z
		 M315.8,40.4c0.3-0.9-1.9-3.5-6.4-7.7c-4.5-4.2-7.4-6.6-8.6-7.2c-0.9-0.4-3.7,1.7-8.2,6.3c-4.6,4.6-6.8,7.5-6.8,8.5
		c0.1,0.9,2.4,3.6,7,8.1c4.6,4.5,7.3,6.7,8.1,6.7c0.7,0,3.3-2.2,7.8-6.6C313.1,44.1,315.5,41.4,315.8,40.4z M300.8,34.7
		c0.5,0.3,1.5,1.2,3.2,2.7c1.7,1.6,2.5,2.5,2.4,2.9c-0.1,0.3-1,1.3-2.7,3c-1.7,1.7-2.7,2.5-2.9,2.5c-0.3,0-1.4-0.8-3.1-2.5
		c-1.7-1.7-2.6-2.7-2.6-3c0-0.4,0.9-1.5,2.6-3.2C299.5,35.4,300.5,34.6,300.8,34.7z"/>
</g>
</svg>
