<?xml version="1.0" ?><svg data-name="Слой 1" id="Слой_1" viewBox="0 0 32 32" xmlns="http://www.w3.org/2000/svg"><path d="M27.31,8.5558l-7.5-2.32a1.824,1.824,0,0,0-2.27,1.2l-.28.9H8.13a1.8094,1.8094,0,0,0-1.81,1.81v15.46a1.818,1.818,0,0,0,1.81,1.82h3.78a1.7715,1.7715,0,0,0,1.08.92l7.69,2.37a1.6819,1.6819,0,0,0,.54.08,1.8532,1.8532,0,0,0,.86-.21,1.8093,1.8093,0,0,0,.88-1.09l1.56-5.23v-.02l4-13.44A1.82,1.82,0,0,0,27.31,8.5558ZM8.13,26.7358A1.1288,1.1288,0,0,1,7,25.6059v-15.46a1.1353,1.1353,0,0,1,1.13-1.13H18.9a1.14,1.14,0,0,1,1.14,1.11l.05,2.89.01.72.02,1.13.04,2.55.01.86.01.68.07,3.98v.08l.04,2.57a1.1274,1.1274,0,0,1-1.14,1.15Zm14.18,2.57a1.1776,1.1776,0,0,1-.56.68,1.1232,1.1232,0,0,1-.53.13,1.2634,1.2634,0,0,1-.33-.05l-7.7-2.37a1.0855,1.0855,0,0,1-.45-.27h6.41a1.8329,1.8329,0,0,0,1.3-.55,1.8047,1.8047,0,0,0,.52-1.3l-.03-2.13,2.83.93Zm.05-15.78,2.6,3.49-.09.35-2.63-2.09a.3651.3651,0,0,0-.32-.06.3757.3757,0,0,0-.22.24l-.53,1.94a.3349.3349,0,0,0,.02.24l.7,1.5-.03.07-1-.7-.05-2.97.08-.3a.3353.3353,0,0,0-.07-.32l-.02-.02-.03-1.44.53-.22a.337.337,0,0,0,.2-.22l.49-1.78c.18-.68.52-.83.67-.87.11.11.32.41.14,1.09l-.49,1.78A.3307.3307,0,0,0,22.36,13.5258Zm5.5-2.92-3.89,13.11-3.05-.98-.05-3.4,1,.71a.36.36,0,0,0,.2.06.2342.2342,0,0,0,.11-.02.3266.3266,0,0,0,.21-.23l.19-.66a.3973.3973,0,0,0-.02-.24l-.7-1.5.36-1.32,2.63,2.08a.3655.3655,0,0,0,.32.06.3384.3384,0,0,0,.22-.23l.27-1.01a.3306.3306,0,0,0-.05-.29l-2.6-3.49.44-1.62c.4-1.44-.51-1.91-.55-1.92a.2457.2457,0,0,0-.12-.04c-.05,0-1.05-.07-1.45,1.38l-.44,1.62-.13.05-.04-2.61a1.825,1.825,0,0,0-1.82-1.78h-.93l.22-.7a1.1292,1.1292,0,0,1,.56-.67,1.1866,1.1866,0,0,1,.53-.13,1.2654,1.2654,0,0,1,.33.05l7.5,2.32A1.1276,1.1276,0,0,1,27.86,10.6059Z"/><path d="M19.15,24.1757a.3371.3371,0,0,0,.34-.34.3435.3435,0,0,0-.34-.34H8.13a.3436.3436,0,0,0-.34.34.3371.3371,0,0,0,.34.34H19.15Z"/><path d="M9.34,18.7858a4.9824,4.9824,0,0,0,3.96,2.39.9708.9708,0,0,0,.17.01.2134.2134,0,0,0,.08,0,.2772.2772,0,0,0,.09.01c.06,0,.13-.01.19-.01a1.0845,1.0845,0,0,0,.18-.01,4.994,4.994,0,0,0,3.93-2.39.2385.2385,0,0,0,.06-.08c0-.01.01-.01.01-.02.03-.05.05-.09.08-.14,0-.01.01-.01.01-.02a4.8711,4.8711,0,0,0,.32-.74,5.0168,5.0168,0,0,0,.28-1.65c0-.13-.01-.26-.02-.39a4.8854,4.8854,0,0,0-.09-.67,4.5842,4.5842,0,0,0-.19-.63,4.8311,4.8311,0,0,0-.26-.62,2.2212,2.2212,0,0,0-.15-.26v-.01a.4233.4233,0,0,0-.05-.07,4.9572,4.9572,0,0,0-1.15-1.31,4.0664,4.0664,0,0,0-.59-.4,5.0467,5.0467,0,0,0-6.91,1.78v.01a5.0062,5.0062,0,0,0,0,5.14A.2173.2173,0,0,0,9.34,18.7858Zm.4-4.62a5.38,5.38,0,0,0,1.26.38,10.056,10.056,0,0,0-.13,1.59,9.8313,9.8313,0,0,0,.13,1.58,6.7659,6.7659,0,0,0-1.26.38,4.3425,4.3425,0,0,1,0-3.93Zm1.81,1.97a7.7353,7.7353,0,0,1,.13-1.47,11.7965,11.7965,0,0,0,1.62.13v2.68a12.1922,12.1922,0,0,0-1.62.13A7.736,7.736,0,0,1,11.55,16.1357Zm4.06-1.47a7.391,7.391,0,0,1,.12.96c0,.17.01.34.01.51a7.6247,7.6247,0,0,1-.13,1.46c-.15-.02-.31-.04-.47-.06-.23-.02-.46-.04-.7-.05-.15-.01-.31-.01-.46-.01v-2.68c.45-.01.9-.04,1.32-.09A2.9092,2.9092,0,0,0,15.61,14.6657Zm-2.31,3.49v2.29a3.0222,3.0222,0,0,1-1.47-2.18A11.383,11.383,0,0,1,13.3,18.1557Zm.98,2.14a1.4684,1.4684,0,0,1-.3.16v-2.3h.25c.24.01.47.03.7.05.18.02.36.04.53.06A3.56,3.56,0,0,1,14.28,20.2958Zm-.3-6.19v-2.29a3.0511,3.0511,0,0,1,1.48,2.19A11.7317,11.7317,0,0,1,13.98,14.1059Zm-.68-2.28v2.28a11.4451,11.4451,0,0,1-1.47-.1A3.0235,3.0235,0,0,1,13.3,11.8256Zm-3.21,6.86a6.787,6.787,0,0,1,1.06-.31,5.5063,5.5063,0,0,0,.81,1.81A4.4337,4.4337,0,0,1,10.09,18.6857Zm5.25,1.49a5.6982,5.6982,0,0,0,.8-1.79,6.0281,6.0281,0,0,1,1.05.3A4.3645,4.3645,0,0,1,15.34,20.1757Zm2.57-5.01a3.8535,3.8535,0,0,1,.1.68,2.7863,2.7863,0,0,1,.01.29,4.3238,4.3238,0,0,1-.47,1.96,6.54,6.54,0,0,0-1.26-.38,9.8078,9.8078,0,0,0,.13-1.58c0-.11,0-.22-.01-.33v-.24q-.045-.5251-.12-1.02c.16-.03.31-.06.46-.1a.01.01,0,0,0,.01-.01,4.0611,4.0611,0,0,0,.79-.27,3.7516,3.7516,0,0,1,.23.55A2.9663,2.9663,0,0,1,17.91,15.1657Zm-1.92-2.72a4.2048,4.2048,0,0,1,.58.44,4.133,4.133,0,0,1,.62.7,4.8257,4.8257,0,0,1-.92.27c-.04.01-.09.02-.13.03a6.94,6.94,0,0,0-.31-.91,5.08,5.08,0,0,0-.49-.87A3.6364,3.6364,0,0,1,15.99,12.4457Zm-4.03-.35a5.28,5.28,0,0,0-.8,1.79,6.1554,6.1554,0,0,1-1.06-.3A4.2509,4.2509,0,0,1,11.96,12.0956Z"/></svg>