<?xml version="1.0" ?><svg data-name="Слой 1" id="Слой_1" viewBox="0 0 32 32" xmlns="http://www.w3.org/2000/svg"><path d="M30.3978,14.2771a.3526.3526,0,0,0,.34-.35v-4.33a.3435.3435,0,0,0-.34-.34H9.1478a.353.353,0,0,0-.31.2l-.68,1.49-.68-1.49a.353.353,0,0,0-.31-.2h-5.56a.3373.3373,0,0,0-.34.34v4.33a.346.346,0,0,0,.34.35,1.73,1.73,0,0,1,0,3.46.3373.3373,0,0,0-.34.34v4.32a.3373.3373,0,0,0,.34.34h5.56a.3428.3428,0,0,0,.31-.19l.68-1.49.68,1.49a.3428.3428,0,0,0,.31.19h21.25a.3435.3435,0,0,0,.34-.34v-4.32a.3435.3435,0,0,0-.34-.34,1.73,1.73,0,0,1,0-3.46Zm-.35,4.12v3.66H9.3678l-.87-1.9v-1.25a.34.34,0,0,0-.68,0v1.26l-.87,1.89h-5v-3.66a2.4149,2.4149,0,0,0,0-4.78V9.937h5l.87,1.89v1.01a.34.34,0,0,0,.68,0v-.99l.87-1.91h20.68v3.68a2.4148,2.4148,0,0,0,0,4.78Z"/><path d="M28.0578,11.8172a.3841.3841,0,0,0-.09-.09c-.04-.02-.93-.61-2.05.51l-1.27,1.27-4.62-.56a.3485.3485,0,0,0-.29.1l-.78.78a.3579.3579,0,0,0-.1.31.3537.3537,0,0,0,.21.25l3.36,1.35-1.07,1.06-1.77.15a.3214.3214,0,0,0-.21.1l-.52.52a.3387.3387,0,0,0-.1.3.347.347,0,0,0,.19.25l1.85.87.87,1.85a.3474.3474,0,0,0,.25.19c.02,0,.04.01.06.01a.3487.3487,0,0,0,.24-.1l.52-.52a.3727.3727,0,0,0,.1-.22l.15-1.77,1.07-1.07,1.34,3.36a.3327.3327,0,0,0,.25.21.352.352,0,0,0,.31-.09l.79-.79a.3216.3216,0,0,0,.09-.28l-.56-4.63,1.27-1.27C28.6679,12.7471,28.0878,11.8572,28.0578,11.8172Zm-.99,1.57-1.39,1.39a.3609.3609,0,0,0-.1.28l.57,4.63-.31.3-1.34-3.36a.335.335,0,0,0-.25-.21.3575.3575,0,0,0-.31.1l-1.52,1.52a.346.346,0,0,0-.1.21l-.15,1.77-.09.09-.71-1.52a.3322.3322,0,0,0-.17-.16l-1.52-.72.09-.09,1.77-.15a.2812.2812,0,0,0,.21-.1l1.53-1.52a.3446.3446,0,0,0-.12-.56l-3.35-1.34.3-.3,4.62.56a.2938.2938,0,0,0,.28-.1l1.39-1.39c.56-.55.97-.5,1.12-.45C27.5678,12.427,27.6178,12.8272,27.0678,13.387Z"/><path d="M8.1552,13.6853a.3409.3409,0,0,0-.3413.3408v1.4815a.3413.3413,0,0,0,.6826,0V14.0261A.341.341,0,0,0,8.1552,13.6853Z"/><path d="M8.1552,16.1521a.3409.3409,0,0,0-.3413.3408v1.4815a.3413.3413,0,0,0,.6826,0V16.4929A.341.341,0,0,0,8.1552,16.1521Z"/><path d="M6.1347,10.7146H2.7064a.3409.3409,0,1,0,0,.6817H6.1347a.3409.3409,0,1,0,0-.6817Z"/><path d="M6.1347,12.0984H2.7064a.3408.3408,0,1,0,0,.6816H6.1347a.3408.3408,0,1,0,0-.6816Z"/><path d="M10.3959,14.2664h3.4282a.3409.3409,0,1,0,0-.6817H10.3959a.3409.3409,0,1,0,0,.6817Z"/><path d="M6.1347,20.0476H2.7064a.3409.3409,0,1,0,0,.6817H6.1347a.3409.3409,0,1,0,0-.6817Z"/><path d="M17.0912,10.7146H10.3959a.3409.3409,0,1,0,0,.6817h6.6953a.3409.3409,0,1,0,0-.6817Z"/><path d="M17.0912,12.0984H10.3959a.3408.3408,0,1,0,0,.6816h6.6953a.3408.3408,0,1,0,0-.6816Z"/><path d="M17.0878,15.657h-6.69a.3373.3373,0,0,0-.34.34v4.92a.3371.3371,0,0,0,.34.34h6.69a.3371.3371,0,0,0,.34-.34v-4.92A.3373.3373,0,0,0,17.0878,15.657Zm-.34,4.92h-6.01v-4.24h6.01Z"/></svg>